PathFileType	4	(X/Y/Z)	/Users/itak/Documents/Research/Walk-IL/dataset/trc/00174_00008.trc
DataRate	CameraRate	NumFrames	NumMarkers	Units	OrigDataRate	OrigDataStartFrame	OrigNumFrames
100.000000	100.000000	4	53	mm	100.000000	76	614
Frame#	Time	RPSI			LPSI			L3			STRN			T10			C7			CLAV			RBAK			LBAK			LSHO			LUPA			LAEL			LAOL			LWTS			LWPS			LFRA			LIFD			LHPS			LHTS			RSHO			RUPA			RAEL			RAOL			RWTS			RWPS			RFRA			RIFD			RHTS			RHPS			RBHD			LFHD			RFHD			LBHD			LHIP			RHIP			RASI			LASI			LKNE			LTHI			LANK			LTIP			LTOE			LMT1			LMT5			LHEE			RKNE			RTHI			RANK			RTIP			RTOE			RMT1			RMT5			RHEE			
		X1	Y1	Z1	X2	Y2	Z2	X3	Y3	Z3	X4	Y4	Z4	X5	Y5	Z5	X6	Y6	Z6	X7	Y7	Z7	X8	Y8	Z8	X9	Y9	Z9	X10	Y10	Z10	X11	Y11	Z11	X12	Y12	Z12	X13	Y13	Z13	X14	Y14	Z14	X15	Y15	Z15	X16	Y16	Z16	X17	Y17	Z17	X18	Y18	Z18	X19	Y19	Z19	X20	Y20	Z20	X21	Y21	Z21	X22	Y22	Z22	X23	Y23	Z23	X24	Y24	Z24	X25	Y25	Z25	X26	Y26	Z26	X27	Y27	Z27	X28	Y28	Z28	X29	Y29	Z29	X30	Y30	Z30	X31	Y31	Z31	X32	Y32	Z32	X33	Y33	Z33	X34	Y34	Z34	X35	Y35	Z35	X36	Y36	Z36	X37	Y37	Z37	X38	Y38	Z38	X39	Y39	Z39	X40	Y40	Z40	X41	Y41	Z41	X42	Y42	Z42	X43	Y43	Z43	X44	Y44	Z44	X45	Y45	Z45	X46	Y46	Z46	X47	Y47	Z47	X48	Y48	Z48	X49	Y49	Z49	X50	Y50	Z50	X51	Y51	Z51	X52	Y52	Z52	X53	Y53	Z53	

77	0.76	867.3468017578125	1054.789306640625	225.5522766113281	871.500732421875	1051.30224609375	100.8090209960938	872.3253173828125	1089.524291992188	164.854736328125	1125.58935546875	1301.776611328125	157.4408264160156	836.6880493164062	1242.978271484375	157.816650390625	890.8629150390625	1515.612060546875	144.7696533203125	1093.6240234375	1413.918334960938	148.5358581542969	830.8252563476562	1337.842651367188	254.5260009765625	884.6251220703125	1489.714111328125	44.66841125488281	961.5628662109375	1478.290649414062	-34.12981033325195	931.0252075195312	1344.787475585938	-106.4736862182617	951.5829467773438	1127.578247070312	-125.3775253295898	901.060791015625	1111.583984375	-53.88353729248047	1071.716796875	902.2990112304688	-91.2296142578125	991.6380004882812	875.8308715820312	-132.6307678222656	970.833251953125	1017.796569824219	-138.7445068359375	1095.0009765625	717.36474609375	-64.83271026611328	1016.1083984375	807.0078735351562	-126.9584808349609	1086.591064453125	824.39892578125	-110.6839294433594	956.8799438476562	1494.680297851562	326.6450500488281	937.7365112304688	1427.341064453125	395.4906921386719	928.8023071289062	1139.300903320312	449.4380493164062	933.5150756835938	1129.194458007812	352.7949829101562	1081.18896484375	922.76171875	453.4137878417969	1001.916076660156	899.1033325195312	485.0098266601562	956.1498413085938	1068.95947265625	470.339111328125	1121.621948242188	739.4039916992188	438.2344360351562	1114.008178710938	832.9918212890625	468.9208984375	1037.238159179688	818.6295166015625	487.6465454101562	964.0396728515625	1686.200439453125	220.5241394042969	1120.386108398438	1718.105224609375	72.14590454101562	1133.58740234375	1719.744262695312	201.1449432373047	941.7423706054688	1692.367919921875	84.80019378662109	972.51953125	988.4230346679688	-15.8797025680542	1023.464111328125	1014.845825195312	348.9674377441406	1103.883178710938	1041.569458007812	293.1535034179688	1098.53466796875	1027.846313476562	35.75285339355469	980.375732421875	492.8185729980469	14.52911567687988	991.1959228515625	634.7700805664062	-13.00558280944824	884.78759765625	39.02597045898438	4.223282337188721	935.2495727539062	273.3699951171875	-3.764037370681763	1104.81005859375	37.23564147949219	11.3889741897583	1059.042724609375	38.20771408081055	62.97389221191406	989.36962890625	31.36083984375	-44.85383605957031	839.1336669921875	38.86901092529297	77.57695770263672	1016.45458984375	515.615234375	335.537109375	1070.94921875	783.4268798828125	359.7088623046875	914.1399536132812	37.37486267089844	343.3311462402344	1019.6591796875	397.4463195800781	318.0932922363281	1137.695922851562	39.67847442626953	305.0379333496094	1080.623046875	37.61103057861328	260.9151306152344	1027.5576171875	34.03529357910156	377.5081787109375	861.1131591796875	36.91428756713867	275.4234008789062	
78	0.77	867.4368896484375	1054.798828125	225.5496063232422	871.589111328125	1051.30517578125	100.8175735473633	872.3580322265625	1089.51611328125	164.8509674072266	1125.6435546875	1301.773681640625	157.55517578125	836.7557983398438	1242.97509765625	157.8122253417969	890.9490356445312	1515.629150390625	144.8227691650391	1093.674926757812	1413.916381835938	148.649658203125	830.8429565429688	1337.827880859375	254.5140075683594	884.7208251953125	1489.701538085938	44.74748992919922	961.6958618164062	1478.308715820312	-34.06497192382812	931.0579833984375	1344.802734375	-106.367919921875	951.4144897460938	1127.5625	-125.2107162475586	900.941650390625	1111.654296875	-53.62325668334961	1071.681274414062	902.3742065429688	-91.05760955810547	991.4963989257812	875.7861328125	-132.2761993408203	970.6101684570312	1017.737976074219	-138.4945526123047	1095.110961914062	717.4088745117188	-64.57044982910156	1016.063842773438	807.0233764648438	-126.6369323730469	1086.523193359375	824.4602661132812	-110.488410949707	956.8908081054688	1494.646240234375	326.728271484375	937.6248168945312	1427.310791015625	395.5262756347656	928.458251953125	1139.203979492188	449.1983032226562	933.3544921875	1129.1982421875	352.5830993652344	1080.601928710938	922.4331665039062	452.9730834960938	1001.300537109375	898.8800048828125	484.6163635253906	955.6430053710938	1068.816162109375	470.0600891113281	1120.472900390625	738.9765625	437.2584533691406	1113.23828125	832.4942626953125	468.2512817382812	1036.46240234375	818.3159790039062	487.0674743652344	964.1224975585938	1686.226318359375	220.5956115722656	1120.463623046875	1718.068359375	72.19766235351562	1133.68408203125	1719.675415039062	201.2195434570312	941.7721557617188	1692.4296875	84.89856719970703	972.6387329101562	988.440185546875	-15.86149787902832	1023.505432128906	1014.831787109375	348.9800720214844	1103.950927734375	1041.562866210938	293.185546875	1098.603271484375	1027.85205078125	35.76750183105469	980.4471435546875	492.8279724121094	14.49056339263916	991.2315673828125	634.7717895507812	-13.06012725830078	884.7857666015625	39.01364517211914	4.204180240631104	935.2567138671875	273.3956909179688	-3.792623281478882	1104.80126953125	37.23360824584961	11.38489627838135	1059.039916992188	38.22776412963867	62.95916748046875	989.3659057617188	31.34407997131348	-44.87660980224609	839.1377563476562	38.88398742675781	77.55894470214844	1016.568542480469	515.6259155273438	335.5407409667969	1071.052368164062	783.426025390625	359.7202453613281	914.1431884765625	37.37886047363281	343.3308410644531	1019.748718261719	397.4349365234375	318.0772705078125	1137.696166992188	39.67533493041992	305.0390014648438	1080.620483398438	37.61101531982422	260.9154968261719	1027.5595703125	34.04168701171875	377.5033874511719	861.1124877929688	36.91384506225586	275.423583984375	
79	0.78	867.5240478515625	1054.808837890625	225.5440673828125	871.679443359375	1051.310668945312	100.8245162963867	872.41015625	1089.51123046875	164.8535919189453	1125.695434570312	1301.771118164062	157.6797027587891	836.8238525390625	1242.9716796875	157.8111572265625	891.0326538085938	1515.649780273438	144.879638671875	1093.726928710938	1413.915893554688	148.7705688476562	830.85693359375	1337.811645507812	254.5027923583984	884.8103637695312	1489.686889648438	44.83430862426758	961.830322265625	1478.322509765625	-33.99099349975586	931.0924682617188	1344.818359375	-106.2660064697266	951.2564086914062	1127.538452148438	-125.0376358032227	900.8318481445312	1111.723388671875	-53.36112976074219	1071.647827148438	902.4338989257812	-90.88983917236328	991.362548828125	875.734130859375	-131.9393005371094	970.3814697265625	1017.686340332031	-138.2400970458984	1095.214111328125	717.4521484375	-64.29682922363281	1016.004821777344	807.0205078125	-126.3192825317383	1086.43505859375	824.51171875	-110.2926635742188	956.8954467773438	1494.611450195312	326.8184509277344	937.5106201171875	1427.282348632812	395.5663757324219	928.1239013671875	1139.115234375	448.9894104003906	933.17333984375	1129.19970703125	352.4031677246094	1080.031372070312	922.1177978515625	452.5341186523438	1000.705932617188	898.6679077148438	484.24853515625	955.1597290039062	1068.682495117188	469.8094177246094	1119.340942382812	738.5736083984375	436.2483520507812	1112.4833984375	832.0107421875	467.5660400390625	1035.708251953125	818.005615234375	486.4976501464844	964.2037963867188	1686.247192382812	220.6730651855469	1120.549438476562	1718.0341796875	72.26406860351562	1133.782470703125	1719.60986328125	201.3059234619141	941.8037719726562	1692.490844726562	85.00347900390625	972.7645874023438	988.4672241210938	-15.84261798858643	1023.545471191406	1014.818908691406	348.9957275390625	1104.018188476562	1041.557250976562	293.2229919433594	1098.672119140625	1027.861328125	35.78812408447266	980.5184326171875	492.8415832519531	14.44989776611328	991.2638549804688	634.7762451171875	-13.11470794677734	884.7860717773438	39.00399398803711	4.185265064239502	935.2617797851562	273.4196472167969	-3.822418689727783	1104.79248046875	37.23194885253906	11.38095664978027	1059.037475585938	38.25213623046875	62.94333267211914	989.3628540039062	31.32966995239258	-44.89975738525391	839.1419677734375	38.90143966674805	77.53713226318359	1016.681640625	515.635986328125	335.5469360351562	1071.146362304688	783.4234619140625	359.7349548339844	914.1449584960938	37.38007736206055	343.3289794921875	1019.836364746094	397.4249267578125	318.0601501464844	1137.69677734375	39.67226028442383	305.0411987304688	1080.618896484375	37.60999298095703	260.9154663085938	1027.560913085938	34.04776763916016	377.4983215332031	861.1104736328125	36.91411590576172	275.4209899902344	
80	0.79	867.6069946289062	1054.817993164062	225.5359191894531	871.7691040039062	1051.318603515625	100.8308029174805	872.4818725585938	1089.508911132812	164.8627166748047	1125.745483398438	1301.767578125	157.8124237060547	836.8912353515625	1242.96826171875	157.8158874511719	891.1129150390625	1515.672119140625	144.9406585693359	1093.78076171875	1413.915893554688	148.8976745605469	830.8676147460938	1337.795532226562	254.4938507080078	884.8937377929688	1489.671630859375	44.92679977416992	961.9616088867188	1478.3330078125	-33.90939331054688	931.1279296875	1344.8330078125	-106.1664962768555	951.1167602539062	1127.507446289062	-124.8580703735352	900.737060546875	1111.78955078125	-53.10315704345703	1071.614990234375	902.4754028320312	-90.72373199462891	991.2406616210938	875.6795043945312	-131.6254577636719	970.15673828125	1017.642395019531	-137.9828033447266	1095.29052734375	717.494384765625	-64.0006103515625	1015.927917480469	806.9932250976562	-126.0048446655273	1086.329223632812	824.5491943359375	-110.0926895141602	956.8936767578125	1494.576538085938	326.9144287109375	937.3978271484375	1427.253784179688	395.6111450195312	927.8025512695312	1139.033813476562	448.8110961914062	932.9617919921875	1129.201171875	352.248046875	1079.475952148438	921.8157958984375	452.1016845703125	1000.134460449219	898.4677124023438	483.9063720703125	954.7086791992188	1068.55712890625	469.5866394042969	1118.2333984375	738.1962280273438	435.2198181152344	1111.745971679688	831.545654296875	466.8761596679688	1034.971069335938	817.6983032226562	485.9397888183594	964.2815551757812	1686.262817382812	220.7552642822266	1120.64111328125	1718.001953125	72.34624481201172	1133.8798828125	1719.54833984375	201.4031219482422	941.8394165039062	1692.548950195312	85.11455535888672	972.8970947265625	988.503173828125	-15.82269954681396	1023.582702636719	1014.806884765625	349.014404296875	1104.08447265625	1041.552612304688	293.2660522460938	1098.741333007812	1027.87451171875	35.81538772583008	980.5912475585938	492.8570861816406	14.41072177886963	991.2944946289062	634.7828369140625	-13.16825389862061	884.7882080078125	38.99766540527344	4.166804313659668	935.267333984375	273.4399719238281	-3.851012468338013	1104.785034179688	37.23075103759766	11.3774528503418	1059.03662109375	38.27856826782227	62.92742538452148	989.3602294921875	31.31848526000977	-44.92082977294922	839.1458740234375	38.91957855224609	77.51336669921875	1016.791809082031	515.6464233398438	335.5566101074219	1071.229125976562	783.4185791015625	359.7527160644531	914.1455078125	37.37861251831055	343.3262023925781	1019.921203613281	397.4154052734375	318.0419311523438	1137.697509765625	39.6690559387207	305.0442199707031	1080.61865234375	37.60805892944336	260.9146423339844	1027.561401367188	34.05318450927734	377.4934692382812	861.1072387695312	36.91472625732422	275.4166870117188	
